# Blender 3.6.2
# www.blender.org
mtllib ElectricBox3.mtl
o ElectricBox3
v -1.961517 0.122087 13.644374
v -2.254709 0.122087 14.664314
v -2.254709 0.131087 14.673314
v -2.263709 0.131087 14.664314
v -2.254709 0.124724 14.670678
v -2.259905 0.125891 14.669510
v -2.261073 0.131088 14.670678
v -2.261073 0.124724 14.664314
v -2.254709 1.559616 14.673314
v -2.254709 1.568616 14.664314
v -2.263709 1.559616 14.664314
v -2.254709 1.565980 14.670678
v -2.259905 1.564812 14.669510
v -2.261073 1.565980 14.664314
v -2.261073 1.559616 14.670678
v -2.263709 0.131087 12.624434
v -2.254709 0.131087 12.615435
v -2.254709 0.122087 12.624434
v -2.261073 0.131087 12.618071
v -2.259905 0.125891 12.619238
v -2.254709 0.124723 12.618071
v -2.261073 0.124723 12.624434
v -2.254709 1.568616 12.624434
v -2.254709 1.559616 12.615435
v -2.263709 1.559616 12.624434
v -2.254709 1.565980 12.618071
v -2.259905 1.564812 12.619238
v -2.261073 1.559616 12.618071
v -2.261073 1.565980 12.624434
v -1.646818 0.131087 14.664315
v -1.655996 0.131087 14.673314
v -1.655820 0.122087 14.664314
v -1.649580 0.131087 14.670679
v -1.650725 0.125891 14.669510
v -1.655945 0.124723 14.670677
v -1.649455 0.124723 14.664314
v -1.655996 1.568616 14.664314
v -1.655996 1.559616 14.673314
v -1.646996 1.559616 14.664314
v -1.655996 1.565980 14.670678
v -1.650800 1.564812 14.669510
v -1.649632 1.559616 14.670678
v -1.649632 1.565980 14.664314
v -1.655996 0.131087 12.615435
v -1.646818 0.131087 12.624433
v -1.655820 0.122087 12.624434
v -1.649580 0.131087 12.618070
v -1.650725 0.125891 12.619238
v -1.649455 0.124723 12.624434
v -1.655945 0.124723 12.618071
v -1.655996 1.568616 12.624434
v -1.646996 1.559616 12.624434
v -1.655996 1.559616 12.615435
v -1.649632 1.565980 12.624434
v -1.650800 1.564812 12.619238
v -1.649632 1.559616 12.618071
v -1.655996 1.565980 12.618071
v -2.263709 0.131087 13.644374
v -2.254709 0.122087 13.644374
v -2.261073 0.124724 13.644374
v -1.961517 0.131087 12.615435
v -1.961517 0.122087 12.624434
v -1.961517 0.124724 12.618071
v -1.626692 0.131087 13.644374
v -1.635630 0.122087 13.644374
v -1.629283 0.124723 13.644374
v -1.961517 0.131087 14.673314
v -1.961517 0.122087 14.664314
v -1.961517 0.124724 14.670678
v -2.257918 -0.187129 14.532273
v -2.248918 -0.187129 14.541273
v -2.255282 -0.187129 14.538637
v -2.248918 0.114820 14.541273
v -2.248918 0.123820 14.532273
v -2.257918 0.114820 14.532273
v -2.248918 0.121184 14.538637
v -2.254114 0.120017 14.537469
v -2.255282 0.121184 14.532273
v -2.255282 0.114820 14.538637
v -2.248918 -0.187129 12.790884
v -2.257918 -0.187129 12.799884
v -2.255282 -0.187129 12.793520
v -2.248918 0.123820 12.799884
v -2.248918 0.114820 12.790884
v -2.257918 0.114820 12.799884
v -2.248918 0.121184 12.793520
v -2.254114 0.120017 12.794687
v -2.255282 0.114820 12.793520
v -2.255282 0.121184 12.799884
v -1.688585 -0.187129 14.541273
v -1.679585 -0.187129 14.532273
v -1.682221 -0.187129 14.538637
v -1.688585 0.123820 14.532273
v -1.688585 0.114820 14.541273
v -1.679585 0.114820 14.532273
v -1.688585 0.121184 14.538637
v -1.683389 0.120017 14.537469
v -1.682221 0.114820 14.538637
v -1.682221 0.121184 14.532273
v -1.679585 -0.187129 12.799884
v -1.688585 -0.187129 12.790884
v -1.682221 -0.187129 12.793520
v -1.688585 0.123820 12.799884
v -1.679585 0.114820 12.799884
v -1.688585 0.114820 12.790884
v -1.682221 0.121184 12.799884
v -1.683389 0.120017 12.794687
v -1.682221 0.114820 12.793520
v -1.688585 0.121184 12.793520
v -2.257918 -0.232002 12.799884
v -2.248918 -0.232002 12.790884
v -2.248918 -0.241002 12.799884
v -2.255282 -0.232002 12.793520
v -2.254114 -0.237199 12.794687
v -2.248918 -0.238366 12.793520
v -2.255282 -0.238366 12.799884
v -2.257918 -0.232002 14.532273
v -2.248918 -0.241002 14.532273
v -2.248918 -0.232002 14.541273
v -2.255282 -0.238366 14.532273
v -2.254114 -0.237199 14.537469
v -2.248918 -0.238366 14.538637
v -2.255282 -0.232002 14.538637
v -1.688585 -0.232002 12.790884
v -1.679585 -0.232002 12.799884
v -1.688585 -0.241002 12.799884
v -1.682221 -0.232002 12.793520
v -1.683389 -0.237199 12.794687
v -1.682221 -0.238366 12.799884
v -1.688585 -0.238366 12.793520
v -1.679585 -0.232002 14.532273
v -1.688585 -0.232002 14.541273
v -1.688585 -0.241002 14.532273
v -1.682221 -0.232002 14.538637
v -1.683389 -0.237199 14.537469
v -1.688585 -0.238366 14.538637
v -1.682221 -0.238366 14.532273
v -1.644343 0.987737 13.729554
v -1.644638 0.996737 13.738936
v -1.653343 0.996737 13.732222
v -1.644490 0.990373 13.736109
v -1.649601 0.991541 13.736371
v -1.650854 0.996737 13.737995
v -1.650646 0.990373 13.731360
v -1.644638 1.034519 13.738936
v -1.644343 1.043519 13.729554
v -1.653343 1.034519 13.732222
v -1.644490 1.040883 13.736109
v -1.649601 1.039715 13.736371
v -1.650646 1.040883 13.731360
v -1.650854 1.034519 13.737995
v -1.644343 0.987737 13.527405
v -1.653343 0.996737 13.527405
v -1.644343 0.996737 13.518405
v -1.650707 0.990373 13.527405
v -1.649539 0.991541 13.522209
v -1.650707 0.996737 13.521041
v -1.644343 0.990373 13.521041
v -1.644343 1.043519 13.527405
v -1.644343 1.034519 13.518405
v -1.653343 1.034519 13.527405
v -1.644343 1.040883 13.521041
v -1.649539 1.039715 13.522209
v -1.650707 1.034519 13.521041
v -1.650707 1.040883 13.527405
v -1.621132 0.987737 13.723461
v -1.611974 0.996737 13.721552
v -1.621316 0.996737 13.732815
v -1.614750 0.990373 13.722034
v -1.616117 0.991541 13.727622
v -1.614880 0.996737 13.728647
v -1.621356 0.990373 13.729998
v -1.621132 1.043519 13.723461
v -1.621316 1.034519 13.732815
v -1.611974 1.034519 13.721552
v -1.621356 1.040883 13.729998
v -1.616117 1.039715 13.727622
v -1.614880 1.034519 13.728647
v -1.614750 1.040883 13.722034
v -1.607222 0.987737 13.527405
v -1.606561 0.996737 13.518405
v -1.598198 0.996737 13.527383
v -1.606760 0.990373 13.521046
v -1.601639 0.991541 13.522204
v -1.600379 0.996737 13.521029
v -1.600846 0.990373 13.527393
v -1.607222 1.043519 13.527405
v -1.598198 1.034519 13.527383
v -1.606561 1.034519 13.518405
v -1.600846 1.040883 13.527393
v -1.601639 1.039715 13.522204
v -1.600379 1.034519 13.521029
v -1.606760 1.040883 13.521046
vn 0.1781 -0.1790 0.9676
vn 0.1790 0.1794 0.9674
vn -0.1794 0.1794 0.9673
vn -0.1794 -0.1794 0.9673
vn -0.0000 -0.1951 0.9808
vn -0.1794 -0.9673 -0.1794
vn -0.0000 -0.9808 -0.1951
vn -0.0000 -1.0000 -0.0000
vn -0.1951 -0.9808 -0.0000
vn 0.1977 -0.9803 -0.0000
vn 0.1790 -0.9668 0.1825
vn -0.0000 -0.9808 0.1951
vn 0.1794 0.9673 -0.1794
vn -0.1794 0.9673 -0.1794
vn -0.1794 0.9673 0.1794
vn 0.1794 0.9673 0.1794
vn 0.1790 -0.9668 -0.1825
vn -0.1794 -0.1794 -0.9673
vn -0.1794 0.1794 -0.9673
vn 0.1790 0.1794 -0.9674
vn 0.1781 -0.1790 -0.9676
vn -0.0000 -0.1951 -0.9808
vn -0.9673 -0.1794 0.1794
vn -0.9673 0.1794 0.1794
vn -0.9673 0.1794 -0.1794
vn -0.9673 -0.1794 -0.1794
vn -0.9808 -0.1951 -0.0000
vn 0.9658 -0.1765 -0.1897
vn 0.9665 0.1813 -0.1814
vn 0.9665 0.1813 0.1814
vn 0.9658 -0.1765 0.1897
vn 0.9816 -0.1909 -0.0000
vn -0.9808 -0.0000 0.1951
vn -0.9808 -0.0000 -0.1951
vn 0.1951 -0.0000 0.9808
vn 0.1794 0.1794 0.9673
vn -0.1951 -0.0000 0.9808
vn -0.1951 -0.0000 -0.9808
vn 0.1951 -0.0000 -0.9808
vn 0.1794 -0.1794 -0.9673
vn 0.1794 -0.9673 -0.1794
vn 0.1794 -0.9673 0.1794
vn -0.1794 -0.9673 0.1794
vn 0.1794 -0.1794 0.9673
vn 0.1794 0.1794 -0.9673
vn -0.1798 -0.9672 -0.1794
vn 0.1812 -0.9690 -0.1680
vn 0.2129 -0.9609 0.1768
vn -0.1372 -0.9742 0.1790
vn 0.9808 -0.0000 -0.1951
vn 0.9808 -0.0000 0.1951
vn 0.9673 -0.1794 0.1794
vn 0.9673 -0.1794 -0.1794
vn 0.9673 0.1794 -0.1794
vn 0.9673 0.1794 0.1794
vn 0.3845 -0.1824 0.9049
vn 0.3845 0.1824 0.9049
vn 0.0610 0.1918 0.9795
vn 0.0610 -0.1918 0.9795
vn 0.9763 -0.1828 -0.1156
vn 0.9763 0.1828 -0.1156
vn 0.9606 0.1814 0.2105
vn 0.9606 -0.1814 0.2105
vn 0.1812 0.9690 -0.1680
vn -0.1798 0.9672 -0.1794
vn -0.1371 0.9742 0.1790
vn 0.2129 0.9609 0.1768
vn -0.9632 -0.1902 0.1899
vn -0.9632 0.1902 0.1899
vn -0.9671 0.1804 -0.1794
vn -0.9671 -0.1804 -0.1794
vn 0.1844 0.1812 -0.9660
vn 0.1844 -0.1812 -0.9660
vn -0.1726 -0.6965 0.6965
vn -0.5774 -0.5773 0.5774
vn -0.6965 -0.6965 0.1726
vn -0.6965 -0.1726 0.6965
vn -0.1726 0.6965 0.6965
vn -0.5774 0.5773 0.5774
vn -0.6965 0.1726 0.6965
vn -0.6965 0.6965 0.1726
vn -0.6965 -0.1726 -0.6965
vn -0.5774 -0.5773 -0.5774
vn -0.6965 -0.6965 -0.1726
vn -0.1726 -0.6965 -0.6965
vn -0.1726 0.6965 -0.6965
vn -0.5774 0.5773 -0.5774
vn -0.6965 0.6965 -0.1726
vn -0.6965 0.1726 -0.6965
vn 0.6916 -0.1714 0.7017
vn 0.5724 -0.5757 0.5839
vn 0.6952 -0.6946 0.1850
vn 0.1712 -0.6953 0.6981
vn 0.1726 0.6965 0.6965
vn 0.5774 0.5773 0.5773
vn 0.6965 0.6965 0.1726
vn 0.6946 0.1725 0.6984
vn 0.6916 -0.1714 -0.7017
vn 0.5724 -0.5757 -0.5839
vn 0.1712 -0.6953 -0.6981
vn 0.6952 -0.6946 -0.1850
vn 0.6965 0.6965 -0.1726
vn 0.5774 0.5773 -0.5774
vn 0.1726 0.6965 -0.6965
vn 0.6946 0.1725 -0.6984
vn -0.5774 0.5774 0.5773
vn -0.5773 0.5773 -0.5774
vn 0.5774 0.5774 0.5773
vn 0.6965 0.1726 0.6965
vn 0.6965 0.1726 -0.6965
vn -0.5773 -0.5774 0.5773
vn 0.6965 -0.1726 -0.6965
vn 0.5774 -0.5773 -0.5774
vn 0.1726 -0.6965 -0.6965
vn 0.6965 -0.6965 -0.1726
vn 0.6965 -0.1726 0.6965
vn 0.5774 -0.5774 0.5773
vn 0.6965 -0.6965 0.1726
vn 0.1726 -0.6965 0.6965
vn -0.0041 -0.7217 0.6922
vn -0.4820 -0.6142 0.6249
vn -0.6692 -0.7209 0.1802
vn -0.5981 -0.2026 0.7754
vn -0.0041 0.7217 0.6922
vn -0.4820 0.6142 0.6249
vn -0.5981 0.2026 0.7754
vn -0.6692 0.7209 0.1802
vn -0.6961 -0.6969 -0.1724
vn -0.5774 -0.5774 -0.5773
vn -0.1725 -0.6965 -0.6965
vn -0.1725 0.6965 -0.6965
vn -0.5774 0.5774 -0.5773
vn -0.6961 0.6969 -0.1724
vn 0.7011 -0.6877 0.1886
vn 0.6332 -0.5686 0.5252
vn 0.3150 -0.6880 0.6538
vn 0.7588 -0.1675 0.6294
vn 0.3150 0.6880 0.6538
vn 0.6332 0.5686 0.5252
vn 0.7011 0.6877 0.1886
vn 0.7588 0.1675 0.6294
vn 0.1767 -0.7016 -0.6903
vn 0.5937 -0.5846 -0.5530
vn 0.7003 -0.7024 -0.1272
vn 0.7200 -0.1783 -0.6707
vn 0.7003 0.7024 -0.1272
vn 0.5937 0.5846 -0.5530
vn 0.1767 0.7016 -0.6903
vn 0.7200 0.1783 -0.6707
vn -0.7071 -0.7071 -0.0000
vn -0.0000 -0.7071 -0.7071
vn 0.7107 -0.7035 -0.0000
vn -0.0000 -0.7071 0.7071
vn -0.7071 -0.0000 0.7071
vn -0.7071 -0.0000 -0.7071
vn 0.7071 -0.0000 -0.7071
vn 0.7071 -0.0000 0.7071
vt 0.368547 0.996587
vt 0.002421 0.996587
vt 0.002421 0.843139
vt 0.368547 0.843139
vt 0.368547 0.918283
vt 0.373393 0.373730
vt 0.373393 0.448874
vt 0.634799 0.448874
vt 0.634799 0.373730
vt 0.634799 0.532398
vt 0.896205 0.527223
vt 0.896205 0.448874
vt 0.002422 0.688570
vt 0.002422 0.535122
vt 0.525235 0.535122
vt 0.525235 0.688570
vt 0.373393 0.527223
vt 0.739518 0.843139
vt 0.373391 0.843139
vt 0.373391 0.996587
vt 0.739518 0.996587
vt 0.739518 0.918283
vt 0.368547 0.002423
vt 0.002421 0.002423
vt 0.002421 0.525236
vt 0.368547 0.525236
vt 0.368547 0.263830
vt 0.373392 0.368547
vt 0.373393 0.002421
vt 0.896205 0.002421
vt 0.896206 0.368547
vt 0.634799 0.368547
vt 0.978438 0.002420
vt 0.978438 0.446424
vt 0.989939 0.446424
vt 0.989939 0.002420
vt 0.977500 0.778947
vt 0.900111 0.778947
vt 0.900111 0.635336
vt 0.977500 0.635336
vt 0.887976 0.920527
vt 0.744365 0.920527
vt 0.744365 0.932028
vt 0.887976 0.932028
vt 0.002421 0.694407
vt 0.002421 0.838018
vt 0.446425 0.838018
vt 0.446425 0.694407
vt 0.989001 0.635336
vt 0.989001 0.778947
vt 0.451266 0.838018
vt 0.451266 0.694407
vt 0.895270 0.694407
vt 0.895270 0.838018
vt 0.887976 0.843139
vt 0.744365 0.843139
vt 0.930110 0.451789
vt 0.930113 0.461303
vt 0.980360 0.457723
vt 0.981920 0.451773
vt 0.530079 0.615675
vt 0.974084 0.615675
vt 0.974084 0.627176
vt 0.530079 0.627175
vt 0.901050 0.002420
vt 0.901050 0.446424
vt 0.530079 0.538286
vt 0.974084 0.538286
vt 0.996464 0.457728
vt 0.986781 0.457728
vt 0.986781 0.451750
vt 0.996464 0.451750
vt 0.925266 0.501741
vt 0.915583 0.501741
vt 0.915583 0.451976
vt 0.925266 0.451976
vt 0.983231 0.462346
vt 0.983234 0.471860
vt 0.931424 0.471876
vt 0.932984 0.465926
vt 0.910736 0.451636
vt 0.901052 0.451636
vt 0.901052 0.504130
vt 0.910736 0.504130
vt 0.939796 0.477105
vt 0.930113 0.477105
vt 0.930113 0.486789
vt 0.939796 0.486789
vt 0.896205 0.373730
vt 0.897837 0.373730
vt 0.897537 0.372398
vt 0.896205 0.372099
vt 0.368547 0.841508
vt 0.369879 0.841808
vt 0.370178 0.843139
vt 0.370178 0.002423
vt 0.369879 0.001091
vt 0.368547 0.000792
vt 0.000790 0.843139
vt 0.001089 0.841808
vt 0.002421 0.841508
vt 0.525235 0.533491
vt 0.526567 0.533791
vt 0.526866 0.535122
vt 0.002421 0.000792
vt 0.001089 0.001091
vt 0.000790 0.002423
vt 0.368547 0.526867
vt 0.369879 0.526568
vt 0.370178 0.525236
vt 0.741149 0.843139
vt 0.740849 0.841808
vt 0.739518 0.841508
vt 0.373393 0.372099
vt 0.372061 0.372398
vt 0.371762 0.373730
vt 0.000791 0.535122
vt 0.001091 0.533791
vt 0.002422 0.533491
vt 0.373391 0.841508
vt 0.372060 0.841808
vt 0.371760 0.843139
vt 0.000790 0.525236
vt 0.001089 0.526568
vt 0.002421 0.526867
vt 0.897837 0.368547
vt 0.897537 0.369879
vt 0.896206 0.370178
vt 0.370178 0.996600
vt 0.369879 0.997938
vt 0.368547 0.998232
vt 0.896206 0.528854
vt 0.897537 0.528529
vt 0.897836 0.527191
vt 0.526866 0.688570
vt 0.526567 0.689902
vt 0.525235 0.690201
vt 0.002421 0.998218
vt 0.001089 0.997919
vt 0.000790 0.996587
vt 0.896205 0.000790
vt 0.897537 0.001090
vt 0.897837 0.002421
vt 0.739518 0.998232
vt 0.740849 0.997938
vt 0.741149 0.996600
vt 0.373392 0.370178
vt 0.372061 0.369879
vt 0.371761 0.368547
vt 0.371762 0.527191
vt 0.372061 0.528529
vt 0.373392 0.528854
vt 0.002422 0.690201
vt 0.001091 0.689902
vt 0.000791 0.688570
vt 0.371762 0.002421
vt 0.372061 0.001089
vt 0.373393 0.000790
vt 0.371760 0.996587
vt 0.372060 0.997919
vt 0.373391 0.998218
vt 0.898480 0.635336
vt 0.898780 0.634004
vt 0.900111 0.633705
vt 0.895270 0.692776
vt 0.896602 0.693076
vt 0.896901 0.694407
vt 0.901050 0.000789
vt 0.899718 0.001088
vt 0.899419 0.002420
vt 0.449635 0.694407
vt 0.449934 0.693076
vt 0.451266 0.692776
vt 0.889607 0.843139
vt 0.889308 0.841807
vt 0.887976 0.841507
vt 0.899419 0.446424
vt 0.899718 0.447756
vt 0.901050 0.448055
vt 0.896901 0.838018
vt 0.896602 0.839350
vt 0.895270 0.839649
vt 0.900111 0.780578
vt 0.898780 0.780278
vt 0.898480 0.778947
vt 0.974084 0.536655
vt 0.975416 0.536954
vt 0.975715 0.538286
vt 0.451266 0.839649
vt 0.449934 0.839350
vt 0.449635 0.838018
vt 0.528448 0.538286
vt 0.528748 0.536954
vt 0.530079 0.536655
vt 0.744365 0.841507
vt 0.743033 0.841807
vt 0.742734 0.843139
vt 0.989939 0.448055
vt 0.991271 0.447756
vt 0.991570 0.446424
vt 0.887976 0.933659
vt 0.889308 0.933360
vt 0.889607 0.932028
vt 0.002421 0.692776
vt 0.001089 0.693076
vt 0.000790 0.694407
vt 0.991570 0.002420
vt 0.991271 0.001088
vt 0.989939 0.000789
vt 0.448056 0.694407
vt 0.447757 0.693076
vt 0.446425 0.692776
vt 0.989001 0.633705
vt 0.990332 0.634004
vt 0.990632 0.635336
vt 0.742734 0.932028
vt 0.743033 0.933360
vt 0.744365 0.933659
vt 0.530079 0.628807
vt 0.528748 0.628507
vt 0.528448 0.627175
vt 0.000790 0.838018
vt 0.001089 0.839350
vt 0.002421 0.839649
vt 0.975715 0.627176
vt 0.975416 0.628507
vt 0.974084 0.628807
vt 0.990632 0.778947
vt 0.990332 0.780278
vt 0.989001 0.780578
vt 0.446425 0.839649
vt 0.447757 0.839350
vt 0.448056 0.838018
vt 0.983600 0.451735
vt 0.983667 0.450425
vt 0.982382 0.450158
vt 0.996464 0.450157
vt 0.997796 0.450478
vt 0.998095 0.451788
vt 0.912367 0.451857
vt 0.912067 0.450573
vt 0.910736 0.450157
vt 0.985150 0.451788
vt 0.985449 0.450478
vt 0.986781 0.450157
vt 0.930962 0.473491
vt 0.929678 0.473224
vt 0.929744 0.471914
vt 0.901052 0.450157
vt 0.899721 0.450573
vt 0.899421 0.451857
vt 0.930109 0.450158
vt 0.928778 0.450458
vt 0.928479 0.451789
vt 0.910736 0.505761
vt 0.912067 0.505462
vt 0.912367 0.504130
vt 0.941427 0.477105
vt 0.941128 0.475774
vt 0.939796 0.475474
vt 0.984865 0.471859
vt 0.984567 0.473191
vt 0.983235 0.473491
vt 0.930113 0.475474
vt 0.928781 0.475774
vt 0.928482 0.477105
vt 0.899421 0.504130
vt 0.899721 0.505462
vt 0.901052 0.505761
vt 0.979995 0.459358
vt 0.981427 0.459008
vt 0.982035 0.457665
vt 0.925266 0.450158
vt 0.926598 0.450421
vt 0.926897 0.451853
vt 0.998095 0.457717
vt 0.997796 0.459060
vt 0.996464 0.459377
vt 0.931309 0.465984
vt 0.931917 0.464641
vt 0.933350 0.464290
vt 0.986781 0.459377
vt 0.985449 0.459060
vt 0.985150 0.457717
vt 0.913952 0.451853
vt 0.914251 0.450421
vt 0.915583 0.450158
vt 0.928483 0.461422
vt 0.928780 0.462734
vt 0.930110 0.462937
vt 0.939796 0.488373
vt 0.941128 0.488050
vt 0.941427 0.486738
vt 0.926897 0.501738
vt 0.926598 0.503068
vt 0.925266 0.503369
vt 0.983234 0.460712
vt 0.984564 0.460915
vt 0.984861 0.462227
vt 0.915583 0.503369
vt 0.914251 0.503068
vt 0.913952 0.501738
vt 0.928482 0.486738
vt 0.928781 0.488050
vt 0.930113 0.488373
vt 0.634799 0.372099
vt 0.370178 0.263830
vt 0.371762 0.448874
vt 0.741149 0.918283
vt 0.634799 0.534024
vt 0.634799 0.370178
vt 0.897837 0.448874
vt 0.370178 0.918283
vt 0.977500 0.633705
vt 0.978438 0.000789
vt 0.889607 0.920527
vt 0.978438 0.448055
vt 0.528448 0.615675
vt 0.742734 0.920527
vt 0.977500 0.780578
vt 0.975715 0.615675
s 1
usemtl ElectricBox3
f 31/1/1 38/2/2 9/3/3 3/4/4 67/5/5
f 18/6/6 62/7/7 1/8/8 59/9/9
f 1/8/8 65/10/10 32/11/11 68/12/12
f 51/13/13 23/14/14 10/15/15 37/16/16
f 62/7/7 46/17/17 65/10/10 1/8/8
f 17/18/18 24/19/19 53/20/20 44/21/21 61/22/22
f 4/23/23 11/24/24 25/25/25 16/26/26 58/27/27
f 45/28/28 52/29/29 39/30/30 30/31/31 64/32/32
f 70/33/33 81/34/34 110/35/26 117/36/23
f 90/37/35 94/38/36 73/39/3 71/40/37
f 80/41/38 101/42/39 124/43/40 111/44/18
f 112/45/6 126/46/41 133/47/42 118/48/43
f 90/37/35 71/40/37 119/49/4 132/50/44
f 103/51/13 83/52/14 74/53/15 93/54/16
f 80/41/38 84/55/19 105/56/45 101/42/39
f 152/57/46 180/58/47 166/59/48 138/60/49
f 100/61/50 91/62/51 131/63/52 125/64/53
f 70/33/33 75/65/24 85/66/25 81/34/34
f 100/61/50 104/67/54 95/68/55 91/62/51
f 168/69/56 174/70/57 145/71/58 139/72/59
f 182/73/60 188/74/61 175/75/62 167/76/63
f 187/77/64 159/78/65 146/79/66 173/80/67
f 140/81/68 147/82/69 161/83/70 153/84/71
f 154/85/18 160/86/19 189/87/72 181/88/73
f 2/89/43 5/90/74 6/91/75 8/92/76
f 3/4/4 7/93/77 6/94/75 5/95/74
f 4/23/23 8/96/76 6/97/75 7/98/77
f 9/3/3 12/99/78 13/100/79 15/101/80
f 10/15/15 14/102/81 13/103/79 12/104/78
f 11/24/24 15/105/80 13/106/79 14/107/81
f 16/26/26 19/108/82 20/109/83 22/110/84
f 17/18/18 21/111/85 20/112/83 19/113/82
f 18/6/6 22/114/84 20/115/83 21/116/85
f 23/14/14 26/117/86 27/118/87 29/119/88
f 24/19/19 28/120/89 27/121/87 26/122/86
f 25/25/25 29/123/88 27/124/87 28/125/89
f 30/31/31 33/126/90 34/127/91 36/128/92
f 31/1/1 35/129/93 34/130/91 33/131/90
f 32/11/11 36/132/92 34/133/91 35/134/93
f 37/16/16 40/135/94 41/136/95 43/137/96
f 38/2/2 42/138/97 41/139/95 40/140/94
f 39/30/30 43/141/96 41/142/95 42/143/97
f 44/21/21 47/144/98 48/145/99 50/146/100
f 45/28/28 49/147/101 48/148/99 47/149/98
f 46/17/17 50/150/100 48/151/99 49/152/101
f 51/13/13 54/153/102 55/154/103 57/155/104
f 52/29/29 56/156/105 55/157/103 54/158/102
f 53/20/20 57/159/104 55/160/103 56/161/105
f 73/39/3 76/162/78 77/163/106 79/164/80
f 74/53/15 78/165/81 77/166/106 76/167/78
f 75/65/24 79/168/80 77/169/106 78/170/81
f 83/52/14 86/171/86 87/172/107 89/173/88
f 84/55/19 88/174/89 87/175/107 86/176/86
f 85/66/25 89/177/88 87/178/107 88/179/89
f 93/54/16 96/180/94 97/181/108 99/182/96
f 94/38/36 98/183/109 97/184/108 96/185/94
f 95/68/55 99/186/96 97/187/108 98/188/109
f 103/51/13 106/189/102 107/190/103 109/191/104
f 104/67/54 108/192/110 107/193/103 106/194/102
f 105/56/45 109/195/104 107/196/103 108/197/110
f 110/35/26 113/198/82 114/199/83 116/200/84
f 111/44/18 115/201/85 114/202/83 113/203/82
f 112/45/6 116/204/84 114/205/83 115/206/85
f 117/36/23 120/207/76 121/208/111 123/209/77
f 118/48/43 122/210/74 121/211/111 120/212/76
f 119/49/4 123/213/77 121/214/111 122/215/74
f 124/43/40 127/216/112 128/217/113 130/218/114
f 125/64/53 129/219/115 128/220/113 127/221/112
f 126/46/41 130/222/114 128/223/113 129/224/115
f 131/63/52 134/225/116 135/226/117 137/227/118
f 132/50/44 136/228/119 135/229/117 134/230/116
f 133/47/42 137/231/118 135/232/117 136/233/119
f 138/60/49 141/234/120 142/235/121 144/236/122
f 139/72/59 143/237/123 142/238/121 141/239/120
f 140/81/68 144/240/122 142/241/121 143/242/123
f 145/71/58 148/243/124 149/244/125 151/245/126
f 146/79/66 150/246/127 149/247/125 148/248/124
f 147/82/69 151/249/126 149/250/125 150/251/127
f 152/57/46 155/252/128 156/253/129 158/254/130
f 153/84/71 157/255/82 156/256/129 155/257/128
f 154/85/18 158/258/130 156/259/129 157/260/82
f 159/78/65 162/261/131 163/262/132 165/263/133
f 160/86/19 164/264/89 163/265/132 162/266/131
f 161/83/70 165/267/133 163/268/132 164/269/89
f 166/59/48 169/270/134 170/271/135 172/272/136
f 167/76/63 171/273/137 170/274/135 169/275/134
f 168/69/56 172/276/136 170/277/135 171/278/137
f 173/80/67 176/279/138 177/280/139 179/281/140
f 174/70/57 178/282/141 177/283/139 176/284/138
f 175/75/62 179/285/140 177/286/139 178/287/141
f 180/58/47 183/288/142 184/289/143 186/290/144
f 181/88/73 185/291/145 184/292/143 183/293/142
f 182/73/60 186/294/144 184/295/143 185/296/145
f 187/77/64 190/297/146 191/298/147 193/299/148
f 188/74/61 192/300/149 191/301/147 190/302/146
f 189/87/72 193/303/148 191/304/147 192/305/149
f 59/9/9 2/89/43 8/92/76 60/306/150
f 60/307/150 8/96/76 4/23/23 58/27/27
f 3/4/4 9/3/3 15/101/80 7/93/77
f 7/98/77 15/105/80 11/24/24 4/23/23
f 10/15/15 23/14/14 29/119/88 14/102/81
f 14/107/81 29/123/88 25/25/25 11/24/24
f 24/19/19 17/18/18 19/113/82 28/120/89
f 28/125/89 19/108/82 16/26/26 25/25/25
f 62/7/7 18/6/6 21/116/85 63/308/151
f 63/309/151 21/111/85 17/18/18 61/22/22
f 23/14/14 51/13/13 57/155/104 26/117/86
f 26/122/86 57/159/104 53/20/20 24/19/19
f 52/29/29 45/28/28 47/149/98 56/156/105
f 56/161/105 47/144/98 44/21/21 53/20/20
f 65/10/10 46/17/17 49/152/101 66/310/152
f 66/311/152 49/147/101 45/28/28 64/32/32
f 51/13/13 37/16/16 43/137/96 54/153/102
f 54/158/102 43/141/96 39/30/30 52/29/29
f 38/2/2 31/1/1 33/131/90 42/138/97
f 42/143/97 33/126/90 30/31/31 39/30/30
f 68/12/12 32/11/11 35/134/93 69/312/153
f 69/313/153 35/129/93 31/1/1 67/5/5
f 37/16/16 10/15/15 12/104/78 40/135/94
f 40/140/94 12/99/78 9/3/3 38/2/2
f 18/6/6 59/9/9 60/306/150 22/114/84
f 22/110/84 60/307/150 58/27/27 16/26/26
f 46/17/17 62/7/7 63/308/151 50/150/100
f 50/146/100 63/309/151 61/22/22 44/21/21
f 32/11/11 65/10/10 66/310/152 36/132/92
f 36/128/92 66/311/152 64/32/32 30/31/31
f 2/89/43 68/12/12 69/312/153 5/90/74
f 5/95/74 69/313/153 67/5/5 3/4/4
f 71/40/37 73/39/3 79/164/80 72/314/154
f 72/315/154 79/168/80 75/65/24 70/33/33
f 74/53/15 83/52/14 89/173/88 78/165/81
f 78/170/81 89/177/88 85/66/25 75/65/24
f 84/55/19 80/41/38 82/316/155 88/174/89
f 88/179/89 82/317/155 81/34/34 85/66/25
f 83/52/14 103/51/13 109/191/104 86/171/86
f 86/176/86 109/195/104 105/56/45 84/55/19
f 104/67/54 100/61/50 102/318/156 108/192/110
f 108/197/110 102/319/156 101/42/39 105/56/45
f 103/51/13 93/54/16 99/182/96 106/189/102
f 106/194/102 99/186/96 95/68/55 104/67/54
f 94/38/36 90/37/35 92/320/157 98/183/109
f 98/188/109 92/321/157 91/62/51 95/68/55
f 93/54/16 74/53/15 76/167/78 96/180/94
f 96/185/94 76/162/78 73/39/3 94/38/36
f 112/45/6 118/48/43 120/212/76 116/204/84
f 116/200/84 120/207/76 117/36/23 110/35/26
f 126/46/41 112/45/6 115/206/85 130/222/114
f 130/218/114 115/201/85 111/44/18 124/43/40
f 133/47/42 126/46/41 129/224/115 137/231/118
f 137/227/118 129/219/115 125/64/53 131/63/52
f 118/48/43 133/47/42 136/233/119 122/210/74
f 122/215/74 136/228/119 132/50/44 119/49/4
f 70/33/33 117/36/23 123/209/77 72/315/154
f 72/314/154 123/213/77 119/49/4 71/40/37
f 131/63/52 91/62/51 92/321/157 134/225/116
f 134/230/116 92/320/157 90/37/35 132/50/44
f 100/61/50 125/64/53 127/221/112 102/318/156
f 102/319/156 127/216/112 124/43/40 101/42/39
f 110/35/26 81/34/34 82/317/155 113/198/82
f 113/203/82 82/316/155 80/41/38 111/44/18
f 152/57/46 138/60/49 144/236/122 155/252/128
f 155/257/128 144/240/122 140/81/68 153/84/71
f 139/72/59 145/71/58 151/245/126 143/237/123
f 143/242/123 151/249/126 147/82/69 140/81/68
f 146/79/66 159/78/65 165/263/133 150/246/127
f 150/251/127 165/267/133 161/83/70 147/82/69
f 160/86/19 154/85/18 157/260/82 164/264/89
f 164/269/89 157/255/82 153/84/71 161/83/70
f 180/58/47 152/57/46 158/254/130 183/288/142
f 183/293/142 158/258/130 154/85/18 181/88/73
f 159/78/65 187/77/64 193/299/148 162/261/131
f 162/266/131 193/303/148 189/87/72 160/86/19
f 188/74/61 182/73/60 185/296/145 192/300/149
f 192/305/149 185/291/145 181/88/73 189/87/72
f 166/59/48 180/58/47 186/290/144 169/270/134
f 169/275/134 186/294/144 182/73/60 167/76/63
f 187/77/64 173/80/67 179/281/140 190/297/146
f 190/302/146 179/285/140 175/75/62 188/74/61
f 174/70/57 168/69/56 171/278/137 178/282/141
f 178/287/141 171/273/137 167/76/63 175/75/62
f 138/60/49 166/59/48 172/272/136 141/234/120
f 141/239/120 172/276/136 168/69/56 139/72/59
f 173/80/67 146/79/66 148/248/124 176/279/138
f 176/284/138 148/243/124 145/71/58 174/70/57
f 59/9/9 1/8/8 68/12/12 2/89/43
